<?xml version="1.0" encoding="utf-8"?>
<!-- Generator: Adobe Illustrator 20.1.0, SVG Export Plug-In . SVG Version: 6.00 Build 0)  -->
<svg version="1.1" id="Capa_1" xmlns="http://www.w3.org/2000/svg" xmlns:xlink="http://www.w3.org/1999/xlink" x="0px" y="0px"
	 viewBox="0 0 981.4 981.4" style="enable-background:new 0 0 981.4 981.4;" xml:space="preserve">
<style type="text/css">
	.st0{opacity:0.5;fill:#201813;enable-background:new    ;}
	.st1{opacity:0.1;fill:#FFFFFF;enable-background:new    ;}
	.st2{fill:#2B344B;}
	.st3{fill:#FFFFFF;}
	.st4{fill:#A1BD4D;}
	.st5{fill:#B73F4B;}
	.st6{fill:#1D918D;}
</style>
<title>Recurso 1</title>
<g>
	<g id="Capa_2">
		<g id="POSTER2">
			<path class="st0" d="M969.4,490.7c0,264.3-214.4,478.7-478.7,478.7S12,755.2,12,490.7S226.4,12,490.7,12S969.4,226.4,969.4,490.7
				z"/>
			<path class="st1" d="M928.8,490.7c0,241.9-196,437.9-437.9,437.9S52.8,732.6,52.8,490.7s196-437.9,437.9-437.9
				S928.8,248.8,928.8,490.7z"/>
			<path class="st2" d="M593.2,328.3c0-25.3-46.5-24.6-46-3.1c0.3,10.8,18.4,11.4,47.8,20.8c20.8,6.6,40.9,14.1,50.7,24.2v-41.9
				H593.2z"/>
			<path class="st2" d="M490.7,77.8c-228.1,0-412.9,184.8-412.9,412.9s184.8,412.9,412.9,412.9s412.9-184.8,412.9-412.9
				S718.8,77.8,490.7,77.8z"/>
			<path class="st3" d="M189.5,549.8v-65.2H237v11.1h-33.5v15.4h28.8v11.1h-28.8v27.7H189.5z"/>
			<path class="st3" d="M248.5,549.8v-65.2h51.3v11.1h-37.3v14.4h34.8V521h-34.8v17.8h38.6v10.9L248.5,549.8z"/>
			<path class="st3" d="M309.4,528.6l13.5-1.3c0.9,4.4,2.5,7.4,5,9.5c2.5,2,5.8,3.1,10.2,3.1c4.5,0,7.9-0.9,10.2-2.6
				c2-1.5,3.3-3.8,3.5-6.3c0-1.5-0.4-2.8-1.5-3.9c-1.5-1.3-3.2-2.3-5-2.8c-1.6-0.6-5.4-1.5-11.2-2.9c-7.4-1.7-12.8-3.9-15.7-6.4
				c-4.1-3.2-6.4-8-6.4-13.1c0-3.3,1-6.6,3.1-9.3c2.2-3.1,5.1-5.4,8.6-6.6c4.4-1.6,9-2.3,13.7-2.3c8.7,0,15.3,1.7,19.7,5.4
				c4.4,3.5,6.8,8.7,6.8,14.4l-14,0.6c-0.6-3.3-1.9-5.8-3.8-7.3c-1.9-1.5-5-2.2-8.9-2.2c-4.1,0-7.3,0.7-9.6,2.3
				c-1.5,0.9-2.2,2.5-2.2,4.1s0.7,3.1,2,3.9c1.7,1.5,6,2.9,12.8,4.4c6.8,1.5,11.8,3.1,15.1,4.7c3.1,1.5,5.7,3.8,7.7,6.7
				c3.9,6.6,3.6,14.6-0.6,20.8c-2.3,3.3-5.5,5.8-9.3,7.3c-4.8,1.7-9.9,2.5-15,2.3c-8.7,0-15.4-1.9-20.1-5.7
				C313.2,541.5,310.4,536,309.4,528.6z"/>
			<path class="st3" d="M393,549.8v-54.2h-20.5v-11.1h55.1v11.1H407v54.2H393z"/>
			<path class="st3" d="M436.1,549.8v-65.2h14v65.2H436.1z"/>
			<path class="st3" d="M481.1,549.8l-24.8-65.2h15.1l17.6,48.4l16.9-48.4h14.9l-24.8,65.2H481.1z"/>
			<path class="st3" d="M583.2,549.8H568l-6-14.9h-27.7l-5.7,14.9h-14.9l26.9-65.2h14.7L583.2,549.8z M557.4,524.1l-9.5-24.2
				l-9.3,24.2H557.4z"/>
			<path class="st3" d="M590.9,549.8v-64.7h14v53.7h34.8v10.9H590.9z"/>
			<path class="st3" d="M674.6,484.6h25.5c5.8,0,10.2,0.4,13.1,1.3c3.9,1,7.6,3.1,10.5,6c2.9,3.1,5.2,6.6,6.6,10.6
				c1.6,5,2.3,10.2,2.3,15.4c0.1,4.7-0.6,9.5-2.2,13.8c-1.5,4.4-4.1,8.3-7.4,11.5c-2.8,2.5-6.3,4.2-9.8,5.2c-4.1,1-8.2,1.5-12.4,1.3
				h-26.2V484.6z M688.6,495.7v43.3h10.5c2.8,0.1,5.7-0.1,8.4-0.6c2-0.4,3.9-1.3,5.7-2.8c1.7-1.7,3.1-3.9,3.6-6.3
				c1-3.9,1.6-7.9,1.5-11.9c0-5.1-0.4-8.9-1.5-11.7c-0.7-2.5-2.2-4.7-3.9-6.3c-1.9-1.6-4.1-2.6-6.4-3.1c-1.9-0.4-5.8-0.6-11.5-0.6
				L688.6,495.7z"/>
			<path class="st3" d="M744.5,549.8v-65.2h51v11.1h-37.1v14.4h34.5V521h-34.5v17.8h38.4v10.9L744.5,549.8z"/>
			<path class="st3" d="M184.9,597.6l9.8-0.9c0.6,3.1,1.7,5.4,3.5,6.8c2,1.6,4.7,2.3,7.3,2.2c3.2,0,5.7-0.6,7.3-1.9
				c1.5-1,2.5-2.8,2.5-4.5c0-1-0.3-2-1-2.8c-1-1-2.2-1.6-3.6-2c-1.2-0.4-3.8-1-8-2c-5.4-1.3-9.2-2.8-11.2-4.7
				c-2.9-2.3-4.5-5.7-4.5-9.5c0-2.3,0.7-4.8,2.2-6.7c1.6-2.2,3.6-3.8,6.1-4.8c3.1-1.2,6.4-1.7,9.8-1.6c6.3,0,10.9,1.3,14,3.9
				c3.1,2.5,4.8,6.3,4.8,10.3l-10,0.4c-0.1-2-1.2-3.9-2.8-5.2c-1.5-1-3.5-1.6-6.3-1.6c-2.3-0.1-4.8,0.4-6.8,1.7
				c-1,0.6-1.6,1.7-1.6,2.9s0.6,2.2,1.5,2.8c1.3,1,4.4,2,9.2,3.2c3.6,0.7,7.3,1.9,10.8,3.3c2.2,1,4.1,2.8,5.5,4.8
				c2.8,4.7,2.6,10.5-0.4,15c-1.6,2.3-3.9,4.2-6.7,5.2c-3.5,1.2-7.1,1.7-10.8,1.7c-6.3,0-11.1-1.3-14.4-4.1
				C187.3,607.1,185.6,602.7,184.9,597.6z"/>
			<path class="st3" d="M231.5,589.6c-0.1-4.1,0.6-8.2,2.3-11.9c1.2-2.3,2.8-4.5,4.7-6.4c1.9-1.7,3.9-3.2,6.4-4.2
				c3.3-1.3,7-1.9,10.6-1.9c7.3,0,13.1,2.2,17.5,6.4s6.6,10.2,6.6,17.9c0,7.6-2.2,13.5-6.6,17.8c-4.4,4.2-10.2,6.4-17.5,6.4
				c-7.4,0-13.3-2.2-17.6-6.4C233.6,603,231.5,597.2,231.5,589.6z M241.8,589.3c0,5.2,1.3,9.3,3.9,12.1c5.4,5.4,14.1,5.4,19.7,0l0,0
				c2.6-2.8,3.8-6.8,3.8-12.2c0-5.4-1.2-9.5-3.8-11.9c-5.5-5.2-14.3-5.2-19.8,0C243.1,579.8,241.8,583.9,241.8,589.3L241.8,589.3z"
				/>
			<path class="st3" d="M287.4,612.7v-46.9h33.9v7.9h-23.9v11.1h20.7v7.9h-20.7v20h-10V612.7z"/>
			<path class="st3" d="M340.7,612.7v-38.9h-14.6V566h39.3v7.9h-14.6v38.9H340.7z"/>
			<path class="st3" d="M378.7,612.7l-11.8-46.9h10.2l7.4,32.2l9-32.2h11.9l8.7,32.8l7.6-32.8h10l-11.9,46.9h-10.6l-9.9-35l-9.9,35
				H378.7z"/>
			<path class="st3" d="M477.7,612.7h-10.9l-4.4-10.6h-19.8l-4.1,10.6h-10.6l19.2-46.9h10.6L477.7,612.7z M459.4,594.2l-6.8-17.3
				l-6.7,17.3H459.4z"/>
			<path class="st3" d="M483.1,612.7v-46.9h21c5.2,0,9.2,0.4,11.5,1.3c2.3,0.9,4.4,2.3,5.8,4.5c1.5,2.2,2.2,4.8,2.2,7.4
				c0.1,3.2-1,6.4-3.2,8.7c-2.2,2.3-5.4,3.8-9.8,4.4c1.9,1,3.8,2.3,5.4,3.9c2.2,2.3,4.1,5,5.7,7.6l6,9.2h-11.9l-7.3-10.2
				c-1.6-2.5-3.3-4.7-5.2-6.8c-0.9-0.9-1.9-1.6-3.1-1.9c-1.6-0.4-3.3-0.6-5-0.6h-2v19.5L483.1,612.7z M493,585.8h7.4
				c4.8,0,7.7-0.1,9-0.6c1.2-0.3,2-1,2.8-1.9c0.7-1,1-2.3,1-3.5c0-1.5-0.4-2.8-1.3-3.8c-1-1-2.3-1.7-3.8-1.9
				c-0.9-0.1-3.2-0.1-7.3-0.1H493L493,585.8z"/>
			<path class="st3" d="M532.9,612.7v-46.9h36.7v7.9H543v10.3h24.9v7.9H543v12.8h27.7v7.9L532.9,612.7z"/>
			<path class="st3" d="M598.5,612.7v-46.5h10v38.6h24.9v7.9H598.5z"/>
			<path class="st3" d="M640.1,612.7v-46.9h10v46.9H640.1z"/>
			<path class="st3" d="M659.6,566h19.8c2.9,0,5.8,0.1,8.7,0.4c1.9,0.3,3.6,1,5.1,1.9c1.6,1,2.8,2.3,3.8,3.9c1,1.6,1.6,3.5,1.5,5.5
				c0,2.2-0.6,4.2-1.9,6c-1.3,1.9-3.1,3.2-5.1,4.1c2.8,0.6,5.1,2.2,7,4.2c1.6,2,2.5,4.5,2.5,7c0,2.2-0.6,4.4-1.6,6.3
				c-1,1.9-2.5,3.6-4.2,4.8c-2,1.3-4.4,2-6.7,2.2c-1.6,0.1-5.7,0.3-12.1,0.3h-16.9L659.6,566L659.6,566z M669.7,573.7v10.8h6.6
				c3.9,0,6.3,0,7.3-0.1c1.5-0.1,2.9-0.7,4.1-1.7c1-1,1.5-2.3,1.5-3.6c0-1.3-0.4-2.6-1.3-3.5c-1-1-2.3-1.6-3.8-1.6
				c-1-0.1-3.8-0.1-8.6-0.1L669.7,573.7z M669.7,592.4v12.5h9.3c2.3,0,4.5,0,6.8-0.3c1.5-0.1,2.6-0.9,3.6-1.9c1-1,1.5-2.5,1.5-3.9
				c0-1.3-0.3-2.5-1-3.6c-0.7-1-1.9-1.7-3.1-2.2c-1.3-0.4-4.4-0.7-8.9-0.7L669.7,592.4z"/>
			<path class="st3" d="M709.6,612.7v-46.9h21c5.2,0,9.2,0.4,11.5,1.3c2.3,0.9,4.4,2.3,5.8,4.5c1.5,2.2,2.2,4.8,2.2,7.4
				c0.1,3.2-1,6.4-3.2,8.7c-2.2,2.3-5.4,3.8-9.8,4.4c1.9,1,3.8,2.3,5.4,3.9c2.2,2.3,4.1,5,5.7,7.6l6,9.2h-11.9l-7.3-10.2
				c-1.6-2.5-3.3-4.7-5.2-6.8c-0.9-0.9-1.9-1.6-3.1-1.9c-1.6-0.4-3.3-0.6-5-0.6h-2v19.5L709.6,612.7z M719.6,585.8h7.4
				c4.8,0,7.7-0.1,9-0.6c1.2-0.3,2-1,2.8-1.9c0.7-1,1-2.3,1-3.5c0-1.5-0.4-2.8-1.3-3.8c-1-1-2.3-1.7-3.8-1.9
				c-0.9-0.1-3.2-0.1-7.3-0.1h-7.9V585.8z"/>
			<path class="st3" d="M759.4,612.7v-46.9H796v7.9h-26.7v10.3h24.8v7.9h-24.8v12.8H797v7.9L759.4,612.7z"/>
			<path class="st3" d="M205.7,683.2l-20.4-54.2h12.5l14.4,40.1l14-40.1h12.2l-20.5,54.2H205.7z"/>
			<path class="st3" d="M289.9,683.2h-12.5l-5-12.2h-22.9l-4.7,12.2h-12.2l22.3-54.2h12.2L289.9,683.2z M268.7,661.7l-7.9-20.1
				l-7.7,20.1H268.7z"/>
			<path class="st3" d="M296.4,683.2v-53.6h11.5v44.6h28.7v9H296.4z"/>
			<path class="st3" d="M345.1,683.2v-53.6h11.5v44.6h28.7v9H345.1z"/>
			<path class="st3" d="M445.1,683.2h-12.5l-5-12.2h-22.9l-4.7,12.2h-12.4l22.3-54.2h12.2L445.1,683.2z M423.9,661.7l-7.9-20.1
				l-7.7,20.1H423.9z"/>
			<path class="st3" d="M451.4,683.2v-54.2h24.3c6.1,0,10.5,0.4,13.3,1.5c2.8,0.9,5.1,2.8,6.7,5.2c1.6,2.5,2.5,5.5,2.5,8.6
				c0.1,3.8-1.2,7.3-3.8,10c-2.5,2.6-6.3,4.4-11.4,5c2.3,1.2,4.4,2.8,6.1,4.5c2.5,2.8,4.7,5.7,6.6,8.7l7,10.6h-13.8l-8.3-11.8
				c-1.9-2.8-3.9-5.4-6.1-8c-1-1-2.2-1.7-3.5-2.2c-1.9-0.4-3.9-0.7-5.8-0.6h-2.3v22.6H451.4z M462.9,651.9h8.6c5.5,0,9-0.3,10.3-0.7
				c1.3-0.4,2.5-1.2,3.2-2.3c0.9-1.2,1.2-2.6,1.2-4.1c0.1-1.6-0.4-3.2-1.6-4.4c-1.2-1.2-2.8-1.9-4.4-2.2c-0.9-0.1-3.8-0.1-8.4-0.1
				h-9L462.9,651.9z"/>
			<path class="st3" d="M521.7,683.2v-45h-16.9v-9.2h45.4v9.2h-16.9v45H521.7z"/>
			<path class="st3" d="M603.3,683.2h-12.5l-5-12.2h-22.9l-4.8,12.2h-12.2l22.3-54.2h12.2L603.3,683.2z M582,661.7l-7.9-20.1
				l-7.7,20.1H582z"/>
			<path class="st3" d="M663.3,673.5v9.6h-38.4c0.4-3.6,1.7-7.3,3.8-10.3c2-3.2,6.1-7.6,12.4-13c5-4.4,8-7.3,9-8.9
				c1.5-1.9,2.2-4.1,2.3-6.4c0.1-2-0.6-3.9-1.9-5.4c-3.2-2.5-7.7-2.5-10.9,0.1c-1.3,1.3-2.2,3.5-2.3,6.6l-10.9-1
				c0.6-5.7,2.6-9.8,6.1-12.2s7.7-3.8,13-3.8c5.7,0,10,1.5,13.3,4.4c3.2,2.6,5,6.6,4.8,10.8c0,2.3-0.4,4.8-1.5,7
				c-1.2,2.5-2.6,4.8-4.4,7c-2.2,2.5-4.7,4.8-7.1,6.8c-3.5,3.1-5.7,5-6.6,6c-0.9,0.9-1.6,1.9-2.2,2.9L663.3,673.5z"/>
			<path class="st3" d="M689.2,628.8c5.5,0,9.9,1.9,13,5.7c3.6,4.4,5.5,11.8,5.5,22c0,10.2-1.9,17.6-5.7,22.1
				c-3.1,3.6-7.4,5.5-13,5.5c-5.2,0.1-10.2-2-13.4-6.1c-3.3-4.1-5.1-11.2-5.1-21.7c0-10.2,1.9-17.5,5.7-22
				C679.3,630.7,683.7,628.8,689.2,628.8z M689.2,637.5c-1.3,0-2.5,0.4-3.5,1.2c-1.3,1.2-2,2.6-2.5,4.4c-0.7,2.6-1.2,7.1-1.2,13.5
				c0,6.4,0.3,10.8,1,13.1c0.6,2.3,1.5,3.9,2.6,4.8c2,1.6,5,1.6,7.1,0c1.3-1.2,2-2.6,2.5-4.4c0.7-2.6,1.2-7.1,1.2-13.5
				c0-6.4-0.3-10.8-1-13.1c-0.6-2.3-1.5-3.9-2.6-4.8S690.4,637.4,689.2,637.5z"/>
			<path class="st3" d="M743.1,683.2h-10.9v-39c-4.1,3.6-8.9,6.3-14.1,7.9v-9.5c3.3-1.2,6.6-2.9,9.3-5.1c3.1-2.2,5.5-5.1,6.8-8.6
				h8.9V683.2z"/>
			<path class="st3" d="M796,642.3l-10.5,1.2c-0.1-1.7-0.7-3.3-1.9-4.5c-1.2-1-2.6-1.6-4.2-1.5c-2.3,0-4.4,1-5.8,2.9
				c-1.6,1.9-2.6,6.1-2.9,12.2c2.5-2.9,6.1-4.5,10-4.5c4.4,0,8.6,1.7,11.5,4.8c3.2,3.3,4.8,7.6,4.8,12.8c0,5.5-1.7,10-5.1,13.4
				c-7.7,7.1-19.7,6.6-26.8-1c-0.1-0.1-0.1-0.1-0.3-0.3c-3.6-4.2-5.5-11.2-5.5-20.8c0-9.9,1.9-17,5.7-21.4c3.6-4.4,9.2-6.7,14.9-6.6
				c3.8-0.1,7.6,1,10.6,3.5C793.5,634.6,795.2,637.9,796,642.3z M771.5,664.9c0,3.3,0.9,6,2.5,7.9c1.3,1.7,3.3,2.8,5.5,2.8
				c1.9,0,3.8-0.7,5-2.2c1.3-1.5,1.9-3.9,1.9-7.4c0-3.3-0.7-6-2.2-7.7c-2.6-2.9-7-3.3-10-0.7c-0.3,0.1-0.4,0.4-0.6,0.6
				C772.2,659.6,771.5,661.8,771.5,664.9z"/>
			<path class="st3" d="M389.8,216.6c-0.4-2.8-2.3-8.2-2.9-7.9c-95.5,42.8-170,125.7-202.6,225.3
				C184.3,434.2,234.1,287.7,389.8,216.6"/>
			<path class="st3" d="M434.2,201.3l-12.4,3.9l-2.3,6.8l3.1-1.2c0.9-0.3,1.9,0.1,2.2,1v0.1c0.3,0.9-0.1,1.7-1,2.2L419,216
				c-0.3,0.1-0.6,0.1-1,0l-7.9,23l-3.1,1l2.5-24l-1.9-5.2c0,0-6.3,2.6-8.4,2.9s-4.4,0.7-4.4,0.7l-4.2,14.6l-3.9,1.5l-1-14.3
				c-1,0.1-3.3,0.4-4.1-0.1h-0.1v-0.1v-0.1v-0.1c0.3-0.9,2.2-2.2,3.1-2.8l-8.3-11.7l3.9-1.5l12.5,8.6c0,0,1.7-1.2,3.8-2.2
				c1.9-1.2,8.4-3.2,8.4-3.2l-2-5.2l-17.3-16.7l3.1-1.2l20.8,12.5c0.1-0.3,0.4-0.4,0.7-0.6l4.7-1.7c0.9-0.3,1.7,0.1,2.2,1v0.1
				c0.3,0.9-0.1,1.7-1,2.2l-3.1,1.2l6.1,3.8l11.9-5c1.7-0.7,9.3-0.9,9.9,0.7C441.5,195.6,436.1,200.9,434.2,201.3"/>
			<polygon class="st4" points="379.6,270.8 379.6,465.7 443.7,465.7 443.7,398.8 516.2,398.8 516.2,352.2 446.4,352.2 446.4,314.5 
				536.6,314.5 536.6,270.8 			"/>
			<path class="st5" d="M594.7,329h57.1c0,0-4.8-58.1-73.1-58.1s-88,21.8-88,64.7c0,69,112.6,36.4,112.6,77.8c0,18.2-61,21.8-61-8.7
				h-55.2c0,0-2.9,63.9,87.2,63.9s79.2-59.1,79.2-82.9c0-17.5-27.7-29.1-57.4-38.4c-29.7-9.3-47.6-10.2-47.9-21.1
				C547.8,304.3,594.7,303.6,594.7,329z"/>
			<polygon class="st6" points="647,270.8 647,465.7 801.1,465.7 801.1,424.9 710.9,424.9 710.9,270.8 			"/>
		</g>
	</g>
</g>
</svg>
